<svg width="67" height="67" viewBox="0 0 67 67" fill="none" xmlns="http://www.w3.org/2000/svg">
<path d="M40.6333 40.6333L13.3333 53.3333L26.0333 26.0333L53.3333 13.3333M33.3333 0C28.9559 0 24.6214 0.862192 20.5772 2.53735C16.533 4.21251 12.8584 6.66782 9.76311 9.76311C3.51189 16.0143 0 24.4928 0 33.3333C0 42.1739 3.51189 50.6523 9.76311 56.9036C12.8584 59.9988 16.533 62.4542 20.5772 64.1293C24.6214 65.8045 28.9559 66.6667 33.3333 66.6667C42.1739 66.6667 50.6523 63.1548 56.9036 56.9036C63.1548 50.6523 66.6667 42.1739 66.6667 33.3333C66.6667 28.9559 65.8045 24.6214 64.1293 20.5772C62.4542 16.533 59.9988 12.8584 56.9036 9.76311C53.8083 6.66782 50.1336 4.21251 46.0894 2.53735C42.0453 0.862192 37.7107 0 33.3333 0ZM33.3333 29.6667C32.3609 29.6667 31.4282 30.053 30.7406 30.7406C30.053 31.4282 29.6667 32.3609 29.6667 33.3333C29.6667 34.3058 30.053 35.2384 30.7406 35.9261C31.4282 36.6137 32.3609 37 33.3333 37C34.3058 37 35.2384 36.6137 35.9261 35.9261C36.6137 35.2384 37 34.3058 37 33.3333C37 32.3609 36.6137 31.4282 35.9261 30.7406C35.2384 30.053 34.3058 29.6667 33.3333 29.6667Z" fill="#406E8C"/>
</svg>
