<svg width="41" height="30" viewBox="0 0 41 30" fill="none" xmlns="http://www.w3.org/2000/svg">
<path fill-rule="evenodd" clip-rule="evenodd" d="M8.54199 5C7.59851 5 6.83366 5.55964 6.83366 6.25V23.75C6.83366 24.4404 7.59851 25 8.54199 25H32.4587C33.4021 25 34.167 24.4404 34.167 23.75V6.25C34.167 5.55964 33.4021 5 32.4587 5H8.54199ZM3.41699 6.25C3.41699 4.17893 5.71153 2.5 8.54199 2.5H32.4587C35.2891 2.5 37.5837 4.17893 37.5837 6.25V23.75C37.5837 25.8211 35.2891 27.5 32.4587 27.5H8.54199C5.71153 27.5 3.41699 25.8211 3.41699 23.75V6.25Z" fill="black"/>
<path fill-rule="evenodd" clip-rule="evenodd" d="M14.5208 10C14.0491 10 13.6667 10.2798 13.6667 10.625C13.6667 10.9702 14.0491 11.25 14.5208 11.25C14.9926 11.25 15.375 10.9702 15.375 10.625C15.375 10.2798 14.9926 10 14.5208 10ZM10.25 10.625C10.25 8.89911 12.1621 7.5 14.5208 7.5C16.8795 7.5 18.7917 8.89911 18.7917 10.625C18.7917 12.3509 16.8795 13.75 14.5208 13.75C12.1621 13.75 10.25 12.3509 10.25 10.625Z" fill="black"/>
<path fill-rule="evenodd" clip-rule="evenodd" d="M26.125 11.6161C26.7922 11.128 27.8738 11.128 28.541 11.6161L37.0827 17.8661C37.7498 18.3543 37.7498 19.1457 37.0827 19.6339C36.4155 20.122 35.3338 20.122 34.6667 19.6339L27.333 14.2678L9.74932 27.1339C9.08217 27.622 8.00051 27.622 7.33337 27.1339C6.66622 26.6457 6.66622 25.8543 7.33337 25.3661L26.125 11.6161Z" fill="black"/>
</svg>
